<svg id="ICONS_48x48" data-name="ICONS 48x48" xmlns="http://www.w3.org/2000/svg" viewBox="0 0 60 60"><defs><style>.cls-1{fill:none;stroke:#cb6686;stroke-linecap:round;stroke-linejoin:round;stroke-width:2px;}</style></defs><rect class="cls-1" x="1" y="1" width="58" height="19.24" rx="2.52"/><line class="cls-1" x1="7.3" y1="10.62" x2="12.35" y2="10.62"/><line class="cls-1" x1="52.7" y1="10.62" x2="53.96" y2="10.62"/><line class="cls-1" x1="46.39" y1="10.62" x2="47.65" y2="10.62"/><path class="cls-1" d="M3.52,20.24A2.52,2.52,0,0,0,1,22.76V37a2.52,2.52,0,0,0,2.52,2.52h53A2.52,2.52,0,0,0,59,37V22.76a2.52,2.52,0,0,0-2.52-2.52"/><line class="cls-1" x1="7.3" y1="29.86" x2="12.35" y2="29.86"/><line class="cls-1" x1="52.7" y1="29.86" x2="53.96" y2="29.86"/><line class="cls-1" x1="46.39" y1="29.86" x2="47.65" y2="29.86"/><line class="cls-1" x1="30" y1="39.65" x2="30" y2="48.91"/><line class="cls-1" x1="1" y1="53.96" x2="24.96" y2="53.96"/><circle class="cls-1" cx="30" cy="53.96" r="5.04"/><line class="cls-1" x1="35.04" y1="53.96" x2="59" y2="53.96"/></svg>